<?xml version="1.0" encoding="UTF-8" standalone="no"?>
<!DOCTYPE svg PUBLIC "-//W3C//DTD SVG 1.1//EN"
 "http://www.w3.org/Graphics/SVG/1.1/DTD/svg11.dtd">
<!-- Generated by graphviz version 2.40.1 (20161225.0304)
 -->
<!-- Title: G Pages: 1 -->
<svg width="427pt" height="260pt"
 viewBox="0.00 0.00 427.00 259.82" xmlns="http://www.w3.org/2000/svg" xmlns:xlink="http://www.w3.org/1999/xlink">
<g id="graph0" class="graph" transform="scale(1 1) rotate(0) translate(4 255.8234)">
<title>G</title>
<polygon fill="#ffffff" stroke="transparent" points="-4,4 -4,-255.8234 423,-255.8234 423,4 -4,4"/>
<g id="clust1" class="cluster">
<title>cluster_G</title>
<path fill="#808080" fill-opacity="0.094118" stroke="#000000" d="M20,-8C20,-8 399,-8 399,-8 405,-8 411,-14 411,-20 411,-20 411,-231.8234 411,-231.8234 411,-237.8234 405,-243.8234 399,-243.8234 399,-243.8234 20,-243.8234 20,-243.8234 14,-243.8234 8,-237.8234 8,-231.8234 8,-231.8234 8,-20 8,-20 8,-14 14,-8 20,-8"/>
</g>
<g id="clust2" class="cluster">
<title>cluster_jointjs2dot</title>
<path fill="#808080" fill-opacity="0.094118" stroke="#000000" d="M28,-60C28,-60 379,-60 379,-60 385,-60 391,-66 391,-72 391,-72 391,-223.8234 391,-223.8234 391,-229.8234 385,-235.8234 379,-235.8234 379,-235.8234 28,-235.8234 28,-235.8234 22,-235.8234 16,-229.8234 16,-223.8234 16,-223.8234 16,-72 16,-72 16,-66 22,-60 28,-60"/>
<text text-anchor="middle" x="203.5" y="-66.8" font-family="Times,serif" font-size="14.00" fill="#000000">jointjs2dot</text>
</g>
<!-- jointjs2dot -->
<g id="node1" class="node">
<title>jointjs2dot</title>
<ellipse fill="#ffffff" fill-opacity="0.698039" stroke="#000000" cx="298" cy="-34" rx="47.8841" ry="18"/>
<text text-anchor="middle" x="298" y="-29.8" font-family="Times,serif" font-size="14.00" fill="#000000">jointjs2dot</text>
</g>
<!-- jointjs2dot__add_cell -->
<g id="node2" class="node">
<title>jointjs2dot__add_cell</title>
<ellipse fill="#fecccc" fill-opacity="0.698039" stroke="#000000" cx="298" cy="-115.4558" rx="85.0693" ry="25.4118"/>
<text text-anchor="middle" x="298" y="-118.2558" font-family="Times,serif" font-size="14.00" fill="#000000">add_cell</text>
<text text-anchor="middle" x="298" y="-104.2558" font-family="Times,serif" font-size="14.00" fill="#000000">(jointjs2dot.py:65)</text>
</g>
<!-- jointjs2dot&#45;&gt;jointjs2dot__add_cell -->
<g id="edge1" class="edge">
<title>jointjs2dot&#45;&gt;jointjs2dot__add_cell</title>
<path fill="none" stroke="#838b8b" stroke-dasharray="5,2" d="M292.28,-52.0777C291.4455,-60.2697 291.1181,-70.2544 291.2977,-79.8532"/>
<polygon fill="#838b8b" stroke="#838b8b" points="287.8068,-80.1574 291.6917,-90.0143 294.8015,-79.8862 287.8068,-80.1574"/>
</g>
<!-- jointjs2dot&#45;&gt;jointjs2dot__add_cell -->
<g id="edge4" class="edge">
<title>jointjs2dot&#45;&gt;jointjs2dot__add_cell</title>
<path fill="none" stroke="#000000" d="M303.72,-52.0777C304.5545,-60.2697 304.8819,-70.2544 304.7023,-79.8532"/>
<polygon fill="#000000" stroke="#000000" points="301.1985,-79.8862 304.3083,-90.0143 308.1932,-80.1574 301.1985,-79.8862"/>
</g>
<!-- jointjs2dot__add_link -->
<g id="node3" class="node">
<title>jointjs2dot__add_link</title>
<ellipse fill="#fecccc" fill-opacity="0.698039" stroke="#000000" cx="109" cy="-115.4558" rx="85.0693" ry="25.4118"/>
<text text-anchor="middle" x="109" y="-118.2558" font-family="Times,serif" font-size="14.00" fill="#000000">add_link</text>
<text text-anchor="middle" x="109" y="-104.2558" font-family="Times,serif" font-size="14.00" fill="#000000">(jointjs2dot.py:80)</text>
</g>
<!-- jointjs2dot&#45;&gt;jointjs2dot__add_link -->
<g id="edge3" class="edge">
<title>jointjs2dot&#45;&gt;jointjs2dot__add_link</title>
<path fill="none" stroke="#838b8b" stroke-dasharray="5,2" d="M254.3777,-41.5319C235.5461,-45.8977 213.7217,-52.1041 195,-60 178.2421,-67.0677 160.8052,-76.5515 145.977,-85.6756"/>
<polygon fill="#838b8b" stroke="#838b8b" points="143.6901,-82.9808 137.1109,-91.2854 147.4329,-88.8962 143.6901,-82.9808"/>
</g>
<!-- jointjs2dot&#45;&gt;jointjs2dot__add_link -->
<g id="edge5" class="edge">
<title>jointjs2dot&#45;&gt;jointjs2dot__add_link</title>
<path fill="none" stroke="#000000" d="M258.8866,-44.6273C244.2345,-48.6665 227.6653,-53.8149 213,-60 195.035,-67.5767 176.2898,-77.9302 159.6731,-87.6405"/>
<polygon fill="#000000" stroke="#000000" points="157.513,-84.8512 150.6791,-92.9473 161.0703,-90.88 157.513,-84.8512"/>
</g>
<!-- jointjs2dot__ccolor -->
<g id="node4" class="node">
<title>jointjs2dot__ccolor</title>
<ellipse fill="#fecccc" fill-opacity="0.698039" stroke="#000000" cx="298" cy="-202.3675" rx="85.0693" ry="25.4118"/>
<text text-anchor="middle" x="298" y="-205.1675" font-family="Times,serif" font-size="14.00" fill="#000000">ccolor</text>
<text text-anchor="middle" x="298" y="-191.1675" font-family="Times,serif" font-size="14.00" fill="#000000">(jointjs2dot.py:41)</text>
</g>
<!-- jointjs2dot&#45;&gt;jointjs2dot__ccolor -->
<g id="edge2" class="edge">
<title>jointjs2dot&#45;&gt;jointjs2dot__ccolor</title>
<path fill="none" stroke="#838b8b" stroke-dasharray="5,2" d="M340.5649,-42.377C358.8812,-46.6403 377.3093,-52.5216 383,-60 404.7765,-88.6175 400.1104,-109.2824 383,-140.9117 375.4659,-154.8387 363.2522,-166.1142 350.3735,-175.0189"/>
<polygon fill="#838b8b" stroke="#838b8b" points="348.3493,-172.1598 341.8567,-180.5322 352.1533,-178.036 348.3493,-172.1598"/>
</g>
<!-- jointjs2dot&#45;&gt;jointjs2dot__ccolor -->
<g id="edge6" class="edge">
<title>jointjs2dot&#45;&gt;jointjs2dot__ccolor</title>
<path fill="none" stroke="#000000" d="M343.654,-39.743C367.9341,-44.0721 394.0276,-50.8373 401,-60 422.7765,-88.6175 418.1104,-109.2824 401,-140.9117 392.6245,-156.3942 378.4656,-168.5998 363.2495,-177.9142"/>
<polygon fill="#000000" stroke="#000000" points="361.1605,-175.0761 354.204,-183.0672 364.6255,-181.1584 361.1605,-175.0761"/>
</g>
<!-- jointjs2dot__add_cell&#45;&gt;jointjs2dot__ccolor -->
<g id="edge7" class="edge">
<title>jointjs2dot__add_cell&#45;&gt;jointjs2dot__ccolor</title>
<path fill="none" stroke="#000000" d="M298,-141.0621C298,-149.0361 298,-157.9805 298,-166.5203"/>
<polygon fill="#000000" stroke="#000000" points="294.5001,-166.6439 298,-176.6439 301.5001,-166.644 294.5001,-166.6439"/>
</g>
<!-- jointjs2dot__add_link&#45;&gt;jointjs2dot__ccolor -->
<g id="edge8" class="edge">
<title>jointjs2dot__add_link&#45;&gt;jointjs2dot__ccolor</title>
<path fill="none" stroke="#000000" d="M155.7191,-136.9396C181.9414,-148.998 214.8247,-164.1194 242.3712,-176.7866"/>
<polygon fill="#000000" stroke="#000000" points="240.9434,-179.9823 251.4912,-180.9804 243.868,-173.6225 240.9434,-179.9823"/>
</g>
</g>
</svg>
