<?xml version="1.0" encoding="UTF-8" standalone="no"?>
<!DOCTYPE svg PUBLIC "-//W3C//DTD SVG 1.1//EN"
 "http://www.w3.org/Graphics/SVG/1.1/DTD/svg11.dtd">
<!-- Generated by graphviz version 2.40.1 (20161225.0304)
 -->
<!-- Title: G Pages: 1 -->
<svg width="427pt" height="260pt"
 viewBox="0.00 0.00 427.00 259.82" xmlns="http://www.w3.org/2000/svg" xmlns:xlink="http://www.w3.org/1999/xlink">
<g id="graph0" class="graph" transform="scale(1 1) rotate(0) translate(4 255.8234)">
<title>G</title>
<polygon fill="#ffffff" stroke="transparent" points="-4,4 -4,-255.8234 423,-255.8234 423,4 -4,4"/>
<g id="clust1" class="cluster">
<title>cluster_G</title>
<path fill="#808080" fill-opacity="0.094118" stroke="#000000" d="M20,-8C20,-8 399,-8 399,-8 405,-8 411,-14 411,-20 411,-20 411,-231.8234 411,-231.8234 411,-237.8234 405,-243.8234 399,-243.8234 399,-243.8234 20,-243.8234 20,-243.8234 14,-243.8234 8,-237.8234 8,-231.8234 8,-231.8234 8,-20 8,-20 8,-14 14,-8 20,-8"/>
</g>
<g id="clust2" class="cluster">
<title>cluster_jointjs2dot</title>
<path fill="#808080" fill-opacity="0.094118" stroke="#000000" d="M28,-16C28,-16 379,-16 379,-16 385,-16 391,-22 391,-28 391,-28 391,-179.8234 391,-179.8234 391,-185.8234 385,-191.8234 379,-191.8234 379,-191.8234 28,-191.8234 28,-191.8234 22,-191.8234 16,-185.8234 16,-179.8234 16,-179.8234 16,-28 16,-28 16,-22 22,-16 28,-16"/>
<text text-anchor="middle" x="203.5" y="-176.6234" font-family="Times,serif" font-size="14.00" fill="#000000">jointjs2dot</text>
</g>
<!-- jointjs2dot -->
<g id="node1" class="node">
<title>jointjs2dot</title>
<ellipse fill="#ffffff" fill-opacity="0.698039" stroke="#000000" cx="298" cy="-217.8234" rx="47.8841" ry="18"/>
<text text-anchor="middle" x="298" y="-213.6234" font-family="Times,serif" font-size="14.00" fill="#000000">jointjs2dot</text>
</g>
<!-- jointjs2dot__add_cell -->
<g id="node2" class="node">
<title>jointjs2dot__add_cell</title>
<ellipse fill="#fecccc" fill-opacity="0.698039" stroke="#000000" cx="298" cy="-136.3675" rx="85.0693" ry="25.4118"/>
<text text-anchor="middle" x="298" y="-139.1675" font-family="Times,serif" font-size="14.00" fill="#000000">add_cell</text>
<text text-anchor="middle" x="298" y="-125.1675" font-family="Times,serif" font-size="14.00" fill="#000000">(jointjs2dot.py:65)</text>
</g>
<!-- jointjs2dot&#45;&gt;jointjs2dot__add_cell -->
<g id="edge3" class="edge">
<title>jointjs2dot&#45;&gt;jointjs2dot__add_cell</title>
<path fill="none" stroke="#838b8b" stroke-dasharray="5,2" d="M292.28,-199.7457C291.4455,-191.5536 291.1181,-181.569 291.2977,-171.9702"/>
<polygon fill="#838b8b" stroke="#838b8b" points="294.8015,-171.9372 291.6917,-161.8091 287.8068,-171.666 294.8015,-171.9372"/>
</g>
<!-- jointjs2dot&#45;&gt;jointjs2dot__add_cell -->
<g id="edge4" class="edge">
<title>jointjs2dot&#45;&gt;jointjs2dot__add_cell</title>
<path fill="none" stroke="#000000" d="M303.72,-199.7457C304.5545,-191.5536 304.8819,-181.569 304.7023,-171.9702"/>
<polygon fill="#000000" stroke="#000000" points="308.1932,-171.666 304.3083,-161.8091 301.1985,-171.9372 308.1932,-171.666"/>
</g>
<!-- jointjs2dot__add_link -->
<g id="node3" class="node">
<title>jointjs2dot__add_link</title>
<ellipse fill="#fecccc" fill-opacity="0.698039" stroke="#000000" cx="109" cy="-136.3675" rx="85.0693" ry="25.4118"/>
<text text-anchor="middle" x="109" y="-139.1675" font-family="Times,serif" font-size="14.00" fill="#000000">add_link</text>
<text text-anchor="middle" x="109" y="-125.1675" font-family="Times,serif" font-size="14.00" fill="#000000">(jointjs2dot.py:80)</text>
</g>
<!-- jointjs2dot&#45;&gt;jointjs2dot__add_link -->
<g id="edge2" class="edge">
<title>jointjs2dot&#45;&gt;jointjs2dot__add_link</title>
<path fill="none" stroke="#838b8b" stroke-dasharray="5,2" d="M254.3777,-210.2915C235.5461,-205.9257 213.7217,-199.7193 195,-191.8234 178.2421,-184.7557 160.8052,-175.2719 145.977,-166.1478"/>
<polygon fill="#838b8b" stroke="#838b8b" points="147.4329,-162.9272 137.1109,-160.538 143.6901,-168.8425 147.4329,-162.9272"/>
</g>
<!-- jointjs2dot&#45;&gt;jointjs2dot__add_link -->
<g id="edge5" class="edge">
<title>jointjs2dot&#45;&gt;jointjs2dot__add_link</title>
<path fill="none" stroke="#000000" d="M258.8866,-207.196C244.2345,-203.1569 227.6653,-198.0085 213,-191.8234 195.035,-184.2466 176.2898,-173.8932 159.6731,-164.1829"/>
<polygon fill="#000000" stroke="#000000" points="161.0703,-160.9434 150.6791,-158.8761 157.513,-166.9722 161.0703,-160.9434"/>
</g>
<!-- jointjs2dot__ccolor -->
<g id="node4" class="node">
<title>jointjs2dot__ccolor</title>
<ellipse fill="#fecccc" fill-opacity="0.698039" stroke="#000000" cx="298" cy="-49.4558" rx="85.0693" ry="25.4118"/>
<text text-anchor="middle" x="298" y="-52.2558" font-family="Times,serif" font-size="14.00" fill="#000000">ccolor</text>
<text text-anchor="middle" x="298" y="-38.2558" font-family="Times,serif" font-size="14.00" fill="#000000">(jointjs2dot.py:41)</text>
</g>
<!-- jointjs2dot&#45;&gt;jointjs2dot__ccolor -->
<g id="edge1" class="edge">
<title>jointjs2dot&#45;&gt;jointjs2dot__ccolor</title>
<path fill="none" stroke="#838b8b" stroke-dasharray="5,2" d="M340.5649,-209.4463C358.8812,-205.1831 377.3093,-199.3018 383,-191.8234 404.7765,-163.2059 400.1104,-142.5409 383,-110.9117 375.4659,-96.9847 363.2522,-85.7092 350.3735,-76.8045"/>
<polygon fill="#838b8b" stroke="#838b8b" points="352.1533,-73.7873 341.8567,-71.2911 348.3493,-79.6635 352.1533,-73.7873"/>
</g>
<!-- jointjs2dot&#45;&gt;jointjs2dot__ccolor -->
<g id="edge6" class="edge">
<title>jointjs2dot&#45;&gt;jointjs2dot__ccolor</title>
<path fill="none" stroke="#000000" d="M343.654,-212.0804C367.9341,-207.7513 394.0276,-200.9861 401,-191.8234 422.7765,-163.2059 418.1104,-142.5409 401,-110.9117 392.6245,-95.4292 378.4656,-83.2236 363.2495,-73.9092"/>
<polygon fill="#000000" stroke="#000000" points="364.6255,-70.665 354.204,-68.7561 361.1605,-76.7473 364.6255,-70.665"/>
</g>
<!-- jointjs2dot__add_cell&#45;&gt;jointjs2dot__ccolor -->
<g id="edge7" class="edge">
<title>jointjs2dot__add_cell&#45;&gt;jointjs2dot__ccolor</title>
<path fill="none" stroke="#000000" d="M298,-110.7612C298,-102.7873 298,-93.8428 298,-85.303"/>
<polygon fill="#000000" stroke="#000000" points="301.5001,-85.1794 298,-75.1795 294.5001,-85.1795 301.5001,-85.1794"/>
</g>
<!-- jointjs2dot__add_link&#45;&gt;jointjs2dot__ccolor -->
<g id="edge8" class="edge">
<title>jointjs2dot__add_link&#45;&gt;jointjs2dot__ccolor</title>
<path fill="none" stroke="#000000" d="M155.7191,-114.8837C181.9414,-102.8254 214.8247,-87.704 242.3712,-75.0367"/>
<polygon fill="#000000" stroke="#000000" points="243.868,-78.2008 251.4912,-70.8429 240.9434,-71.841 243.868,-78.2008"/>
</g>
</g>
</svg>
