<?xml version="1.0" encoding="UTF-8" standalone="no"?>
<!DOCTYPE svg PUBLIC "-//W3C//DTD SVG 1.1//EN"
 "http://www.w3.org/Graphics/SVG/1.1/DTD/svg11.dtd">
<!-- Generated by graphviz version 2.40.1 (20161225.0304)
 -->
<!-- Title: G Pages: 1 -->
<svg width="557pt" height="197pt"
 viewBox="0.00 0.00 557.02 197.00" xmlns="http://www.w3.org/2000/svg" xmlns:xlink="http://www.w3.org/1999/xlink">
<g id="graph0" class="graph" transform="scale(1 1) rotate(0) translate(4 193)">
<title>G</title>
<polygon fill="#ffffff" stroke="transparent" points="-4,4 -4,-193 553.0216,-193 553.0216,4 -4,4"/>
<g id="clust1" class="cluster">
<title>cluster_G</title>
<path fill="#808080" fill-opacity="0.094118" stroke="#000000" d="M20,-8C20,-8 529.0216,-8 529.0216,-8 535.0216,-8 541.0216,-14 541.0216,-20 541.0216,-20 541.0216,-169 541.0216,-169 541.0216,-175 535.0216,-181 529.0216,-181 529.0216,-181 20,-181 20,-181 14,-181 8,-175 8,-169 8,-169 8,-20 8,-20 8,-14 14,-8 20,-8"/>
</g>
<g id="clust2" class="cluster">
<title>cluster_jointjs2dot</title>
<path fill="#808080" fill-opacity="0.094118" stroke="#000000" d="M151.884,-16C151.884,-16 521.0216,-16 521.0216,-16 527.0216,-16 533.0216,-22 533.0216,-28 533.0216,-28 533.0216,-161 533.0216,-161 533.0216,-167 527.0216,-173 521.0216,-173 521.0216,-173 151.884,-173 151.884,-173 145.884,-173 139.884,-167 139.884,-161 139.884,-161 139.884,-28 139.884,-28 139.884,-22 145.884,-16 151.884,-16"/>
<text text-anchor="middle" x="336.4528" y="-157.8" font-family="Times,serif" font-size="14.00" fill="#000000">jointjs2dot</text>
</g>
<!-- jointjs2dot -->
<g id="node1" class="node">
<title>jointjs2dot</title>
<ellipse fill="#ffffff" fill-opacity="0.698039" stroke="#000000" cx="63.942" cy="-118" rx="47.8841" ry="18"/>
<text text-anchor="middle" x="63.942" y="-113.8" font-family="Times,serif" font-size="14.00" fill="#000000">jointjs2dot</text>
</g>
<!-- jointjs2dot__add_cell -->
<g id="node2" class="node">
<title>jointjs2dot__add_cell</title>
<ellipse fill="#fecccc" fill-opacity="0.698039" stroke="#000000" cx="233.1684" cy="-118" rx="85.0693" ry="25.4118"/>
<text text-anchor="middle" x="233.1684" y="-120.8" font-family="Times,serif" font-size="14.00" fill="#000000">add_cell</text>
<text text-anchor="middle" x="233.1684" y="-106.8" font-family="Times,serif" font-size="14.00" fill="#000000">(jointjs2dot.py:65)</text>
</g>
<!-- jointjs2dot&#45;&gt;jointjs2dot__add_cell -->
<g id="edge3" class="edge">
<title>jointjs2dot&#45;&gt;jointjs2dot__add_cell</title>
<path fill="none" stroke="#838b8b" stroke-dasharray="5,2" d="M109.2916,-111.9426C119.111,-111.5697 129.837,-111.3475 140.7375,-111.2757"/>
<polygon fill="#838b8b" stroke="#838b8b" points="140.7846,-114.7757 150.7763,-111.2521 140.7681,-107.7757 140.7846,-114.7757"/>
</g>
<!-- jointjs2dot&#45;&gt;jointjs2dot__add_cell -->
<g id="edge4" class="edge">
<title>jointjs2dot&#45;&gt;jointjs2dot__add_cell</title>
<path fill="none" stroke="#000000" d="M109.2916,-124.0574C119.111,-124.4303 129.837,-124.6525 140.7375,-124.7243"/>
<polygon fill="#000000" stroke="#000000" points="140.7681,-128.2243 150.7763,-124.7479 140.7846,-121.2243 140.7681,-128.2243"/>
</g>
<!-- jointjs2dot__add_link -->
<g id="node3" class="node">
<title>jointjs2dot__add_link</title>
<ellipse fill="#fecccc" fill-opacity="0.698039" stroke="#000000" cx="233.1684" cy="-49" rx="85.0693" ry="25.4118"/>
<text text-anchor="middle" x="233.1684" y="-51.8" font-family="Times,serif" font-size="14.00" fill="#000000">add_link</text>
<text text-anchor="middle" x="233.1684" y="-37.8" font-family="Times,serif" font-size="14.00" fill="#000000">(jointjs2dot.py:80)</text>
</g>
<!-- jointjs2dot&#45;&gt;jointjs2dot__add_link -->
<g id="edge1" class="edge">
<title>jointjs2dot&#45;&gt;jointjs2dot__add_link</title>
<path fill="none" stroke="#838b8b" stroke-dasharray="5,2" d="M83.4661,-101.4931C98.7202,-92.8126 120.5105,-82.9623 139.884,-75 145.2649,-72.7885 150.8421,-70.5539 156.4711,-68.361"/>
<polygon fill="#838b8b" stroke="#838b8b" points="157.8826,-71.5683 165.9676,-64.7212 155.3773,-65.032 157.8826,-71.5683"/>
</g>
<!-- jointjs2dot&#45;&gt;jointjs2dot__add_link -->
<g id="edge5" class="edge">
<title>jointjs2dot&#45;&gt;jointjs2dot__add_link</title>
<path fill="none" stroke="#000000" d="M104.3354,-108.0042C115.7658,-103.2344 128.2599,-97.7774 139.884,-93 154.0532,-87.1766 169.583,-81.1936 183.8363,-75.4857"/>
<polygon fill="#000000" stroke="#000000" points="185.5138,-78.5825 193.4676,-71.5834 182.8851,-72.0948 185.5138,-78.5825"/>
</g>
<!-- jointjs2dot__ccolor -->
<g id="node4" class="node">
<title>jointjs2dot__ccolor</title>
<ellipse fill="#fecccc" fill-opacity="0.698039" stroke="#000000" cx="439.7372" cy="-118" rx="85.0693" ry="25.4118"/>
<text text-anchor="middle" x="439.7372" y="-120.8" font-family="Times,serif" font-size="14.00" fill="#000000">ccolor</text>
<text text-anchor="middle" x="439.7372" y="-106.8" font-family="Times,serif" font-size="14.00" fill="#000000">(jointjs2dot.py:41)</text>
</g>
<!-- jointjs2dot&#45;&gt;jointjs2dot__ccolor -->
<g id="edge2" class="edge">
<title>jointjs2dot&#45;&gt;jointjs2dot__ccolor</title>
<path fill="none" stroke="#838b8b" stroke-dasharray="5,2" d="M100.7334,-129.6516C112.8387,-134.8254 126.6049,-140.1631 139.884,-143 217.4965,-159.581 239.8288,-153.812 318.4528,-143 331.8761,-141.1541 345.9066,-138.21 359.4639,-134.935"/>
<polygon fill="#838b8b" stroke="#838b8b" points="360.378,-138.3144 369.2367,-132.5028 358.6874,-131.5216 360.378,-138.3144"/>
</g>
<!-- jointjs2dot&#45;&gt;jointjs2dot__ccolor -->
<g id="edge6" class="edge">
<title>jointjs2dot&#45;&gt;jointjs2dot__ccolor</title>
<path fill="none" stroke="#000000" d="M80.4336,-134.9191C95.3657,-145.1398 118.2702,-156.3825 139.884,-161 217.4965,-177.581 239.8288,-171.812 318.4528,-161 342.1243,-157.7448 367.6838,-151.0744 389.2073,-143.7974"/>
<polygon fill="#000000" stroke="#000000" points="390.5222,-147.0451 398.7912,-140.4213 388.1964,-140.4428 390.5222,-147.0451"/>
</g>
<!-- jointjs2dot__add_cell&#45;&gt;jointjs2dot__ccolor -->
<g id="edge7" class="edge">
<title>jointjs2dot__add_cell&#45;&gt;jointjs2dot__ccolor</title>
<path fill="none" stroke="#000000" d="M318.6789,-118C327.0433,-118 335.568,-118 344.0246,-118"/>
<polygon fill="#000000" stroke="#000000" points="344.2908,-121.5001 354.2908,-118 344.2908,-114.5001 344.2908,-121.5001"/>
</g>
<!-- jointjs2dot__add_link&#45;&gt;jointjs2dot__ccolor -->
<g id="edge8" class="edge">
<title>jointjs2dot__add_link&#45;&gt;jointjs2dot__ccolor</title>
<path fill="none" stroke="#000000" d="M290.161,-68.0372C315.7935,-76.5992 346.222,-86.7632 372.9205,-95.6813"/>
<polygon fill="#000000" stroke="#000000" points="371.9785,-99.0567 382.5723,-98.9053 374.1963,-92.4173 371.9785,-99.0567"/>
</g>
</g>
</svg>
