<?xml version="1.0" encoding="UTF-8" standalone="no"?>
<!DOCTYPE svg PUBLIC "-//W3C//DTD SVG 1.1//EN"
 "http://www.w3.org/Graphics/SVG/1.1/DTD/svg11.dtd">
<!-- Generated by graphviz version 2.40.1 (20161225.0304)
 -->
<!-- Title: G Pages: 1 -->
<svg width="557pt" height="197pt"
 viewBox="0.00 0.00 557.02 197.00" xmlns="http://www.w3.org/2000/svg" xmlns:xlink="http://www.w3.org/1999/xlink">
<g id="graph0" class="graph" transform="scale(1 1) rotate(0) translate(4 193)">
<title>G</title>
<polygon fill="#ffffff" stroke="transparent" points="-4,4 -4,-193 553.0216,-193 553.0216,4 -4,4"/>
<g id="clust1" class="cluster">
<title>cluster_G</title>
<path fill="#808080" fill-opacity="0.094118" stroke="#000000" d="M20,-8C20,-8 529.0216,-8 529.0216,-8 535.0216,-8 541.0216,-14 541.0216,-20 541.0216,-20 541.0216,-169 541.0216,-169 541.0216,-175 535.0216,-181 529.0216,-181 529.0216,-181 20,-181 20,-181 14,-181 8,-175 8,-169 8,-169 8,-20 8,-20 8,-14 14,-8 20,-8"/>
</g>
<g id="clust2" class="cluster">
<title>cluster_jointjs2dot</title>
<path fill="#808080" fill-opacity="0.094118" stroke="#000000" d="M28,-16C28,-16 397.1376,-16 397.1376,-16 403.1376,-16 409.1376,-22 409.1376,-28 409.1376,-28 409.1376,-161 409.1376,-161 409.1376,-167 403.1376,-173 397.1376,-173 397.1376,-173 28,-173 28,-173 22,-173 16,-167 16,-161 16,-161 16,-28 16,-28 16,-22 22,-16 28,-16"/>
<text text-anchor="middle" x="212.5688" y="-157.8" font-family="Times,serif" font-size="14.00" fill="#000000">jointjs2dot</text>
</g>
<!-- jointjs2dot -->
<g id="node1" class="node">
<title>jointjs2dot</title>
<ellipse fill="#ffffff" fill-opacity="0.698039" stroke="#000000" cx="485.0796" cy="-118" rx="47.8841" ry="18"/>
<text text-anchor="middle" x="485.0796" y="-113.8" font-family="Times,serif" font-size="14.00" fill="#000000">jointjs2dot</text>
</g>
<!-- jointjs2dot__add_cell -->
<g id="node2" class="node">
<title>jointjs2dot__add_cell</title>
<ellipse fill="#fecccc" fill-opacity="0.698039" stroke="#000000" cx="315.8532" cy="-118" rx="85.0693" ry="25.4118"/>
<text text-anchor="middle" x="315.8532" y="-120.8" font-family="Times,serif" font-size="14.00" fill="#000000">add_cell</text>
<text text-anchor="middle" x="315.8532" y="-106.8" font-family="Times,serif" font-size="14.00" fill="#000000">(jointjs2dot.py:65)</text>
</g>
<!-- jointjs2dot&#45;&gt;jointjs2dot__add_cell -->
<g id="edge3" class="edge">
<title>jointjs2dot&#45;&gt;jointjs2dot__add_cell</title>
<path fill="none" stroke="#838b8b" stroke-dasharray="5,2" d="M439.73,-111.9426C429.9105,-111.5697 419.1846,-111.3475 408.284,-111.2757"/>
<polygon fill="#838b8b" stroke="#838b8b" points="408.2535,-107.7757 398.2453,-111.2521 408.237,-114.7757 408.2535,-107.7757"/>
</g>
<!-- jointjs2dot&#45;&gt;jointjs2dot__add_cell -->
<g id="edge4" class="edge">
<title>jointjs2dot&#45;&gt;jointjs2dot__add_cell</title>
<path fill="none" stroke="#000000" d="M439.73,-124.0574C429.9105,-124.4303 419.1846,-124.6525 408.284,-124.7243"/>
<polygon fill="#000000" stroke="#000000" points="408.237,-121.2243 398.2453,-124.7479 408.2535,-128.2243 408.237,-121.2243"/>
</g>
<!-- jointjs2dot__add_link -->
<g id="node3" class="node">
<title>jointjs2dot__add_link</title>
<ellipse fill="#fecccc" fill-opacity="0.698039" stroke="#000000" cx="315.8532" cy="-49" rx="85.0693" ry="25.4118"/>
<text text-anchor="middle" x="315.8532" y="-51.8" font-family="Times,serif" font-size="14.00" fill="#000000">add_link</text>
<text text-anchor="middle" x="315.8532" y="-37.8" font-family="Times,serif" font-size="14.00" fill="#000000">(jointjs2dot.py:80)</text>
</g>
<!-- jointjs2dot&#45;&gt;jointjs2dot__add_link -->
<g id="edge1" class="edge">
<title>jointjs2dot&#45;&gt;jointjs2dot__add_link</title>
<path fill="none" stroke="#838b8b" stroke-dasharray="5,2" d="M465.5555,-101.4931C450.3014,-92.8126 428.5111,-82.9623 409.1376,-75 403.7567,-72.7885 398.1795,-70.5539 392.5505,-68.361"/>
<polygon fill="#838b8b" stroke="#838b8b" points="393.6442,-65.032 383.054,-64.7212 391.139,-71.5683 393.6442,-65.032"/>
</g>
<!-- jointjs2dot&#45;&gt;jointjs2dot__add_link -->
<g id="edge5" class="edge">
<title>jointjs2dot&#45;&gt;jointjs2dot__add_link</title>
<path fill="none" stroke="#000000" d="M444.6862,-108.0042C433.2558,-103.2344 420.7617,-97.7774 409.1376,-93 394.9684,-87.1766 379.4386,-81.1936 365.1853,-75.4857"/>
<polygon fill="#000000" stroke="#000000" points="366.1365,-72.0948 355.554,-71.5834 363.5078,-78.5825 366.1365,-72.0948"/>
</g>
<!-- jointjs2dot__ccolor -->
<g id="node4" class="node">
<title>jointjs2dot__ccolor</title>
<ellipse fill="#fecccc" fill-opacity="0.698039" stroke="#000000" cx="109.2844" cy="-118" rx="85.0693" ry="25.4118"/>
<text text-anchor="middle" x="109.2844" y="-120.8" font-family="Times,serif" font-size="14.00" fill="#000000">ccolor</text>
<text text-anchor="middle" x="109.2844" y="-106.8" font-family="Times,serif" font-size="14.00" fill="#000000">(jointjs2dot.py:41)</text>
</g>
<!-- jointjs2dot&#45;&gt;jointjs2dot__ccolor -->
<g id="edge2" class="edge">
<title>jointjs2dot&#45;&gt;jointjs2dot__ccolor</title>
<path fill="none" stroke="#838b8b" stroke-dasharray="5,2" d="M448.2882,-129.6516C436.1829,-134.8254 422.4166,-140.1631 409.1376,-143 331.5251,-159.581 309.1928,-153.812 230.5688,-143 217.1455,-141.1541 203.115,-138.21 189.5577,-134.935"/>
<polygon fill="#838b8b" stroke="#838b8b" points="190.3342,-131.5216 179.7849,-132.5028 188.6436,-138.3144 190.3342,-131.5216"/>
</g>
<!-- jointjs2dot&#45;&gt;jointjs2dot__ccolor -->
<g id="edge6" class="edge">
<title>jointjs2dot&#45;&gt;jointjs2dot__ccolor</title>
<path fill="none" stroke="#000000" d="M468.588,-134.9191C453.6559,-145.1398 430.7514,-156.3825 409.1376,-161 331.5251,-177.581 309.1928,-171.812 230.5688,-161 206.8973,-157.7448 181.3378,-151.0744 159.8143,-143.7974"/>
<polygon fill="#000000" stroke="#000000" points="160.8252,-140.4428 150.2304,-140.4213 158.4994,-147.0451 160.8252,-140.4428"/>
</g>
<!-- jointjs2dot__add_cell&#45;&gt;jointjs2dot__ccolor -->
<g id="edge7" class="edge">
<title>jointjs2dot__add_cell&#45;&gt;jointjs2dot__ccolor</title>
<path fill="none" stroke="#000000" d="M230.3426,-118C221.9783,-118 213.4536,-118 204.9969,-118"/>
<polygon fill="#000000" stroke="#000000" points="204.7308,-114.5001 194.7308,-118 204.7308,-121.5001 204.7308,-114.5001"/>
</g>
<!-- jointjs2dot__add_link&#45;&gt;jointjs2dot__ccolor -->
<g id="edge8" class="edge">
<title>jointjs2dot__add_link&#45;&gt;jointjs2dot__ccolor</title>
<path fill="none" stroke="#000000" d="M258.8605,-68.0372C233.2281,-76.5992 202.7996,-86.7632 176.1011,-95.6813"/>
<polygon fill="#000000" stroke="#000000" points="174.8253,-92.4173 166.4493,-98.9053 177.0431,-99.0567 174.8253,-92.4173"/>
</g>
</g>
</svg>
