<?xml version="1.0" encoding="UTF-8" standalone="no"?>
<!DOCTYPE svg PUBLIC "-//W3C//DTD SVG 1.1//EN"
 "http://www.w3.org/Graphics/SVG/1.1/DTD/svg11.dtd">
<!-- Generated by graphviz version 2.40.1 (20161225.0304)
 -->
<!-- Title: G Pages: 1 -->
<svg width="1030pt" height="226pt"
 viewBox="0.00 0.00 1030.00 225.82" xmlns="http://www.w3.org/2000/svg" xmlns:xlink="http://www.w3.org/1999/xlink">
<g id="graph0" class="graph" transform="scale(1 1) rotate(0) translate(4 221.8234)">
<title>G</title>
<polygon fill="#ffffff" stroke="transparent" points="-4,4 -4,-221.8234 1026,-221.8234 1026,4 -4,4"/>
<g id="clust1" class="cluster">
<title>cluster_G</title>
<path fill="#808080" fill-opacity="0.094118" stroke="#000000" d="M20,-8C20,-8 1002,-8 1002,-8 1008,-8 1014,-14 1014,-20 1014,-20 1014,-197.8234 1014,-197.8234 1014,-203.8234 1008,-209.8234 1002,-209.8234 1002,-209.8234 20,-209.8234 20,-209.8234 14,-209.8234 8,-203.8234 8,-197.8234 8,-197.8234 8,-20 8,-20 8,-14 14,-8 20,-8"/>
</g>
<g id="clust2" class="cluster">
<title>cluster_tfstate</title>
<path fill="#808080" fill-opacity="0.094118" stroke="#000000" d="M28,-16C28,-16 994,-16 994,-16 1000,-16 1006,-22 1006,-28 1006,-28 1006,-92.9117 1006,-92.9117 1006,-98.9117 1000,-104.9117 994,-104.9117 994,-104.9117 28,-104.9117 28,-104.9117 22,-104.9117 16,-98.9117 16,-92.9117 16,-92.9117 16,-28 16,-28 16,-22 22,-16 28,-16"/>
<text text-anchor="middle" x="511" y="-89.7117" font-family="Times,serif" font-size="14.00" fill="#000000">tfstate</text>
</g>
<g id="clust3" class="cluster">
<title>cluster_tfstate__LookupModule</title>
<path fill="#808080" fill-opacity="0.094118" stroke="#000000" d="M498,-112.9117C498,-112.9117 624,-112.9117 624,-112.9117 630,-112.9117 636,-118.9117 636,-124.9117 636,-124.9117 636,-189.8234 636,-189.8234 636,-195.8234 630,-201.8234 624,-201.8234 624,-201.8234 498,-201.8234 498,-201.8234 492,-201.8234 486,-195.8234 486,-189.8234 486,-189.8234 486,-124.9117 486,-124.9117 486,-118.9117 492,-112.9117 498,-112.9117"/>
<text text-anchor="middle" x="561" y="-186.6234" font-family="Times,serif" font-size="14.00" fill="#000000">tfstate.LookupModule</text>
</g>
<!-- tfstate -->
<g id="node1" class="node">
<title>tfstate</title>
<ellipse fill="#ffffff" fill-opacity="0.698039" stroke="#000000" cx="246" cy="-146.3675" rx="31.9306" ry="18"/>
<text text-anchor="middle" x="246" y="-142.1675" font-family="Times,serif" font-size="14.00" fill="#000000">tfstate</text>
</g>
<!-- tfstate__LookupModule -->
<g id="node2" class="node">
<title>tfstate__LookupModule</title>
<ellipse fill="#fecccc" fill-opacity="0.698039" stroke="#000000" cx="925" cy="-49.4558" rx="72.8105" ry="25.4118"/>
<text text-anchor="middle" x="925" y="-52.2558" font-family="Times,serif" font-size="14.00" fill="#000000">LookupModule</text>
<text text-anchor="middle" x="925" y="-38.2558" font-family="Times,serif" font-size="14.00" fill="#000000">(tfstate.py:20)</text>
</g>
<!-- tfstate__enumerate_assets -->
<g id="node3" class="node">
<title>tfstate__enumerate_assets</title>
<ellipse fill="#fecccc" fill-opacity="0.698039" stroke="#000000" cx="754" cy="-49.4558" rx="80.6624" ry="25.4118"/>
<text text-anchor="middle" x="754" y="-52.2558" font-family="Times,serif" font-size="14.00" fill="#000000">enumerate_assets</text>
<text text-anchor="middle" x="754" y="-38.2558" font-family="Times,serif" font-size="14.00" fill="#000000">(tfstate.py:118)</text>
</g>
<!-- tfstate__enumerate_attributes -->
<g id="node4" class="node">
<title>tfstate__enumerate_attributes</title>
<ellipse fill="#fecccc" fill-opacity="0.698039" stroke="#000000" cx="561" cy="-49.4558" rx="94.1473" ry="25.4118"/>
<text text-anchor="middle" x="561" y="-52.2558" font-family="Times,serif" font-size="14.00" fill="#000000">enumerate_attributes</text>
<text text-anchor="middle" x="561" y="-38.2558" font-family="Times,serif" font-size="14.00" fill="#000000">(tfstate.py:141)</text>
</g>
<!-- tfstate__enumerate_module_paths -->
<g id="node5" class="node">
<title>tfstate__enumerate_module_paths</title>
<ellipse fill="#fecccc" fill-opacity="0.698039" stroke="#000000" cx="336" cy="-49.4558" rx="113.0504" ry="25.4118"/>
<text text-anchor="middle" x="336" y="-52.2558" font-family="Times,serif" font-size="14.00" fill="#000000">enumerate_module_paths</text>
<text text-anchor="middle" x="336" y="-38.2558" font-family="Times,serif" font-size="14.00" fill="#000000">(tfstate.py:128)</text>
</g>
<!-- tfstate__parse_enumerations -->
<g id="node6" class="node">
<title>tfstate__parse_enumerations</title>
<ellipse fill="#fecccc" fill-opacity="0.698039" stroke="#000000" cx="114" cy="-49.4558" rx="90.4613" ry="25.4118"/>
<text text-anchor="middle" x="114" y="-52.2558" font-family="Times,serif" font-size="14.00" fill="#000000">parse_enumerations</text>
<text text-anchor="middle" x="114" y="-38.2558" font-family="Times,serif" font-size="14.00" fill="#000000">(tfstate.py:174)</text>
</g>
<!-- tfstate__LookupModule__run -->
<g id="node7" class="node">
<title>tfstate__LookupModule__run</title>
<ellipse fill="#ff9999" fill-opacity="0.698039" stroke="#000000" cx="561" cy="-146.3675" rx="67.2386" ry="25.4118"/>
<text text-anchor="middle" x="561" y="-149.1675" font-family="Times,serif" font-size="14.00" fill="#000000">run</text>
<text text-anchor="middle" x="561" y="-135.1675" font-family="Times,serif" font-size="14.00" fill="#000000">(tfstate.py:25)</text>
</g>
<!-- tfstate__LookupModule__run&#45;&gt;tfstate__enumerate_assets -->
<g id="edge1" class="edge">
<title>tfstate__LookupModule__run&#45;&gt;tfstate__enumerate_assets</title>
<path fill="none" stroke="#000000" d="M609.6986,-128.7247C627.1161,-121.9054 646.7058,-113.6409 664,-104.9117 679.6034,-97.0359 696.0528,-87.3453 710.5593,-78.28"/>
<polygon fill="#000000" stroke="#000000" points="712.7376,-81.0436 719.3157,-72.7382 708.994,-75.1286 712.7376,-81.0436"/>
</g>
<!-- tfstate__LookupModule__run&#45;&gt;tfstate__enumerate_attributes -->
<g id="edge3" class="edge">
<title>tfstate__LookupModule__run&#45;&gt;tfstate__enumerate_attributes</title>
<path fill="none" stroke="#000000" d="M561,-120.9051C561,-109.9747 561,-97.0121 561,-85.1486"/>
<polygon fill="#000000" stroke="#000000" points="564.5001,-85.0846 561,-75.0847 557.5001,-85.0847 564.5001,-85.0846"/>
</g>
<!-- tfstate__LookupModule__run&#45;&gt;tfstate__enumerate_module_paths -->
<g id="edge2" class="edge">
<title>tfstate__LookupModule__run&#45;&gt;tfstate__enumerate_module_paths</title>
<path fill="none" stroke="#000000" d="M521.026,-125.8649C511.0511,-121.2151 500.2673,-116.5744 490,-112.9117 476.1924,-107.986 471.8411,-109.7426 458,-104.9117 435.7126,-97.1328 411.9279,-86.809 391.3338,-77.1794"/>
<polygon fill="#000000" stroke="#000000" points="392.649,-73.9298 382.1129,-72.8156 389.6546,-80.257 392.649,-73.9298"/>
</g>
</g>
</svg>
